<?xml version="1.0" standalone="no"?>
<!DOCTYPE svg PUBLIC "-//W3C//DTD SVG 20010904//EN"
 "http://www.w3.org/TR/2001/REC-SVG-20010904/DTD/svg10.dtd">
<svg version="1.0" xmlns="http://www.w3.org/2000/svg"
 width="500.000000pt" height="500.000000pt" viewBox="0 0 500.000000 500.000000"
 preserveAspectRatio="xMidYMid meet">
<metadata>
Created by potrace 1.11, written by Peter Selinger 2001-2013
</metadata>
<g transform="translate(0.000000,500.000000) scale(0.100000,-0.100000)"
fill="#000000" stroke="none">
<path d="M2397 4254 c-1 -1 -34 -5 -73 -8 -39 -4 -82 -9 -95 -11 -13 -3 -39
-7 -59 -10 -69 -10 -247 -63 -335 -99 -223 -92 -398 -209 -571 -381 -105 -104
-158 -169 -234 -285 -365 -557 -379 -1276 -37 -1853 114 -192 262 -353 482
-525 32 -25 141 -90 219 -132 318 -166 688 -227 1066 -175 43 6 82 14 165 35
44 11 87 22 95 24 45 11 196 75 275 115 364 187 656 504 814 881 37 89 85 239
96 299 2 14 9 49 14 77 31 162 32 473 1 594 -5 19 -11 49 -13 65 -21 132 -110
365 -198 517 -23 40 -45 75 -48 78 -3 3 -12 16 -20 30 -26 46 -168 214 -232
275 -135 128 -289 235 -449 313 -105 51 -284 116 -350 127 -19 3 -42 8 -50 10
-8 2 -28 7 -45 10 -16 2 -41 7 -55 10 -57 12 -353 27 -363 19z"/>
</g>
</svg>
